M48
;Layer_Color=9474304
;FILE_FORMAT=4:4
METRIC,LZ
;TYPE=PLATED
T01F00S00C0.3000
T02F00S00C1.1000
T03F00S00C3.4000
;TYPE=NON_PLATED
%
T01
X0011Y0027
X00125
Y00285
X0014
Y003
X0015Y0031
Y00325
Y0034
Y00355
X0011Y00285
X0023Y0028
X00245
X0026
Y00295
X00245
X0023
Y0031
X00245
X0026
X00194Y00225
Y00215
X0018413Y0022487
X00334Y00225
X00344
Y00215
X00494
Y00225
X00484
X00644
X00654
Y00215
X0036Y004224
X0034Y004127
X003199Y004018
X002998Y004035
X00235Y00425
X0022
X00205
X0019
X00175
T02
X000623Y00275
X000877
Y0035
X000623
X0043Y003546
Y0038
X0049
Y003546
X0055
Y0038
X0061
Y003546
Y004054
X0055
X005508Y0046
X005254
X005
X004746
X004492
X0043Y004054
X0049
T03
X0005Y0005
X0075
Y0045
X0005
M30
