G04*
G04 #@! TF.GenerationSoftware,Altium Limited,Altium Designer,25.6.2 (33)*
G04*
G04 Layer_Color=61183*
%FSLAX44Y44*%
%MOMM*%
G71*
G04*
G04 #@! TF.SameCoordinates,4775BEC2-559F-4D98-837A-9A644487F7FC*
G04*
G04*
G04 #@! TF.FilePolarity,Positive*
G04*
G01*
G75*
%ADD27C,0.1270*%
%ADD28C,0.1693*%
D27*
X57220Y269920D02*
Y280080D01*
X67380D01*
Y269920D01*
X57220D01*
X82620D02*
Y280080D01*
X92780D01*
Y269920D01*
X82620D01*
Y344920D02*
Y355080D01*
X92780D01*
Y344920D01*
X82620D01*
X57220D02*
Y355080D01*
X67380D01*
Y344920D01*
X57220D01*
X604920Y374920D02*
Y385080D01*
X615080D01*
Y374920D01*
X604920D01*
X424920Y349520D02*
Y359680D01*
X435080D01*
Y349520D01*
X424920D01*
Y400320D02*
Y410480D01*
X435080D01*
Y400320D01*
X424920D01*
Y374920D02*
Y385080D01*
X435080D01*
Y374920D01*
X424920D01*
X484920Y349520D02*
Y359680D01*
X495080D01*
Y349520D01*
X484920D01*
Y400320D02*
Y410480D01*
X495080D01*
Y400320D01*
X484920D01*
Y374920D02*
Y385080D01*
X495080D01*
Y374920D01*
X484920D01*
X544920Y349520D02*
Y359680D01*
X555080D01*
Y349520D01*
X544920D01*
Y400320D02*
Y410480D01*
X555080D01*
Y400320D01*
X544920D01*
Y374920D02*
Y385080D01*
X555080D01*
Y374920D01*
X544920D01*
X604920Y349520D02*
Y359680D01*
X615080D01*
Y349520D01*
X604920D01*
Y400320D02*
Y410480D01*
X615080D01*
Y400320D01*
X604920D01*
X50000Y444920D02*
X44920Y455080D01*
X55080D01*
X50000Y444920D01*
X750000D02*
X744920Y455080D01*
X755080D01*
X750000Y444920D01*
X50000Y44920D02*
X44920Y55080D01*
X55080D01*
X50000Y44920D01*
X750000D02*
X744920Y55080D01*
X755080D01*
X750000Y44920D01*
X444120Y454920D02*
Y465080D01*
X454280D01*
Y454920D01*
X444120D01*
X469520D02*
Y465080D01*
X479680D01*
Y454920D01*
X469520D01*
X494920D02*
Y465080D01*
X505080D01*
Y454920D01*
X494920D01*
X520320D02*
Y465080D01*
X530480D01*
Y454920D01*
X520320D01*
X545720D02*
Y465080D01*
X555880D01*
Y454920D01*
X545720D01*
D28*
X235080Y280000D02*
G03*
X235080Y280000I-5080J0D01*
G01*
X250080D02*
G03*
X250080Y280000I-5080J0D01*
G01*
X265080D02*
G03*
X265080Y280000I-5080J0D01*
G01*
Y295000D02*
G03*
X265080Y295000I-5080J0D01*
G01*
X250080D02*
G03*
X250080Y295000I-5080J0D01*
G01*
X235080D02*
G03*
X235080Y295000I-5080J0D01*
G01*
Y310000D02*
G03*
X235080Y310000I-5080J0D01*
G01*
X250080D02*
G03*
X250080Y310000I-5080J0D01*
G01*
X265080D02*
G03*
X265080Y310000I-5080J0D01*
G01*
X155080Y355000D02*
G03*
X155080Y355000I-5080J0D01*
G01*
Y340000D02*
G03*
X155080Y340000I-5080J0D01*
G01*
Y325000D02*
G03*
X155080Y325000I-5080J0D01*
G01*
Y310000D02*
G03*
X155080Y310000I-5080J0D01*
G01*
X145080Y300000D02*
G03*
X145080Y300000I-5080J0D01*
G01*
Y285000D02*
G03*
X145080Y285000I-5080J0D01*
G01*
X130080D02*
G03*
X130080Y285000I-5080J0D01*
G01*
Y270000D02*
G03*
X130080Y270000I-5080J0D01*
G01*
X115080D02*
G03*
X115080Y270000I-5080J0D01*
G01*
Y285000D02*
G03*
X115080Y285000I-5080J0D01*
G01*
X240080Y425000D02*
G03*
X240080Y425000I-5080J0D01*
G01*
X225080D02*
G03*
X225080Y425000I-5080J0D01*
G01*
X210080D02*
G03*
X210080Y425000I-5080J0D01*
G01*
X195080D02*
G03*
X195080Y425000I-5080J0D01*
G01*
X180080D02*
G03*
X180080Y425000I-5080J0D01*
G01*
X659080Y225000D02*
G03*
X659080Y225000I-5080J0D01*
G01*
Y215000D02*
G03*
X659080Y215000I-5080J0D01*
G01*
X499080Y225000D02*
G03*
X499080Y225000I-5080J0D01*
G01*
Y215000D02*
G03*
X499080Y215000I-5080J0D01*
G01*
X339080Y225000D02*
G03*
X339080Y225000I-5080J0D01*
G01*
X349080D02*
G03*
X349080Y225000I-5080J0D01*
G01*
Y215000D02*
G03*
X349080Y215000I-5080J0D01*
G01*
X199080D02*
G03*
X199080Y215000I-5080J0D01*
G01*
Y225000D02*
G03*
X199080Y225000I-5080J0D01*
G01*
X649080D02*
G03*
X649080Y225000I-5080J0D01*
G01*
X489080D02*
G03*
X489080Y225000I-5080J0D01*
G01*
X189210Y224870D02*
G03*
X189210Y224870I-5080J0D01*
G01*
X365080Y422400D02*
G03*
X365080Y422400I-5080J0D01*
G01*
X345080Y412700D02*
G03*
X345080Y412700I-5080J0D01*
G01*
X324980Y401800D02*
G03*
X324980Y401800I-5080J0D01*
G01*
X304880Y403500D02*
G03*
X304880Y403500I-5080J0D01*
G01*
M02*
